<mxfile host="app.diagrams.net" modified="2024-03-18T08:32:15.573Z" agent="Mozilla/5.0 (Windows NT 10.0; Win64; x64) AppleWebKit/537.36 (KHTML, like Gecko) Chrome/122.0.0.0 Safari/537.36" etag="cIpRXdECo547Bcfq0d60" version="24.0.7" type="device">
  <diagram name="Seite-1" id="okwlnaT5daLVfaedDc0s">
    <mxGraphModel dx="2074" dy="1106" grid="1" gridSize="10" guides="1" tooltips="1" connect="1" arrows="1" fold="1" page="1" pageScale="1" pageWidth="827" pageHeight="1169" math="0" shadow="0">
      <root>
        <mxCell id="0" />
        <mxCell id="1" parent="0" />
        <mxCell id="S9L9W9NkU6gXjfszzeW7-1" value="" style="rounded=0;whiteSpace=wrap;html=1;" parent="1" vertex="1">
          <mxGeometry x="40" y="210" width="730" height="390" as="geometry" />
        </mxCell>
        <mxCell id="S9L9W9NkU6gXjfszzeW7-2" value="" style="rounded=0;whiteSpace=wrap;html=1;" parent="1" vertex="1">
          <mxGeometry x="50" y="220" width="710" height="40" as="geometry" />
        </mxCell>
        <mxCell id="S9L9W9NkU6gXjfszzeW7-3" value="&lt;font style=&quot;font-size: 17px;&quot;&gt;Add a new TourLog!&lt;/font&gt;" style="text;html=1;align=center;verticalAlign=middle;whiteSpace=wrap;rounded=0;" parent="1" vertex="1">
          <mxGeometry x="155" y="225" width="500" height="30" as="geometry" />
        </mxCell>
        <mxCell id="S9L9W9NkU6gXjfszzeW7-4" value="&lt;font style=&quot;font-size: 14px;&quot;&gt;Date&lt;/font&gt;" style="text;html=1;align=center;verticalAlign=middle;whiteSpace=wrap;rounded=0;" parent="1" vertex="1">
          <mxGeometry x="155" y="260" width="60" height="30" as="geometry" />
        </mxCell>
        <mxCell id="S9L9W9NkU6gXjfszzeW7-5" value="" style="rounded=0;whiteSpace=wrap;html=1;" parent="1" vertex="1">
          <mxGeometry x="50" y="290" width="270" height="30" as="geometry" />
        </mxCell>
        <mxCell id="S9L9W9NkU6gXjfszzeW7-6" value="" style="rounded=0;whiteSpace=wrap;html=1;" parent="1" vertex="1">
          <mxGeometry x="50" y="350" width="270" height="210" as="geometry" />
        </mxCell>
        <mxCell id="S9L9W9NkU6gXjfszzeW7-7" value="&lt;font style=&quot;font-size: 14px;&quot;&gt;Comment&lt;/font&gt;" style="text;html=1;align=center;verticalAlign=middle;whiteSpace=wrap;rounded=0;" parent="1" vertex="1">
          <mxGeometry x="140" y="320" width="75" height="30" as="geometry" />
        </mxCell>
        <mxCell id="S9L9W9NkU6gXjfszzeW7-8" value="" style="rounded=0;whiteSpace=wrap;html=1;" parent="1" vertex="1">
          <mxGeometry x="480" y="290" width="270" height="30" as="geometry" />
        </mxCell>
        <mxCell id="S9L9W9NkU6gXjfszzeW7-9" value="&lt;font style=&quot;font-size: 14px;&quot;&gt;difficulty&lt;/font&gt;" style="text;html=1;align=center;verticalAlign=middle;whiteSpace=wrap;rounded=0;" parent="1" vertex="1">
          <mxGeometry x="577.5" y="260" width="60" height="30" as="geometry" />
        </mxCell>
        <mxCell id="S9L9W9NkU6gXjfszzeW7-10" value="" style="rounded=0;whiteSpace=wrap;html=1;" parent="1" vertex="1">
          <mxGeometry x="480" y="460" width="270" height="30" as="geometry" />
        </mxCell>
        <mxCell id="S9L9W9NkU6gXjfszzeW7-11" value="&lt;font style=&quot;font-size: 14px;&quot;&gt;Total Time:&lt;/font&gt;" style="text;html=1;align=center;verticalAlign=middle;whiteSpace=wrap;rounded=0;" parent="1" vertex="1">
          <mxGeometry x="546.25" y="430" width="122.5" height="30" as="geometry" />
        </mxCell>
        <mxCell id="S9L9W9NkU6gXjfszzeW7-13" value="&lt;font style=&quot;font-size: 14px;&quot;&gt;Total Distance&lt;/font&gt;" style="text;html=1;align=center;verticalAlign=middle;whiteSpace=wrap;rounded=0;" parent="1" vertex="1">
          <mxGeometry x="568.75" y="360" width="92.5" height="30" as="geometry" />
        </mxCell>
        <mxCell id="S9L9W9NkU6gXjfszzeW7-14" value="" style="rounded=0;whiteSpace=wrap;html=1;" parent="1" vertex="1">
          <mxGeometry x="480" y="390" width="270" height="30" as="geometry" />
        </mxCell>
        <mxCell id="U0jwwkatvTs_VPl5ncxR-2" value="" style="rounded=0;whiteSpace=wrap;html=1;" vertex="1" parent="1">
          <mxGeometry x="480" y="530" width="270" height="30" as="geometry" />
        </mxCell>
        <mxCell id="U0jwwkatvTs_VPl5ncxR-3" value="&lt;font style=&quot;font-size: 14px;&quot;&gt;Total Time:&lt;/font&gt;" style="text;html=1;align=center;verticalAlign=middle;whiteSpace=wrap;rounded=0;" vertex="1" parent="1">
          <mxGeometry x="546.25" y="500" width="122.5" height="30" as="geometry" />
        </mxCell>
      </root>
    </mxGraphModel>
  </diagram>
</mxfile>
